<?xml version="1.0" standalone="no"?>
<svg xmlns:xlink="http://www.w3.org/1999/xlink" id="wave" style="transform:rotate(0deg); transition: 0.3s" viewBox="0 0 1440 470" version="1.1" xmlns="http://www.w3.org/2000/svg"><defs><linearGradient id="sw-gradient-0" x1="0" x2="0" y1="1" y2="0"><stop stop-color="rgba(255, 255, 255, 1)" offset="0%"/><stop stop-color="rgba(255, 255, 255, 1)" offset="100%"/></linearGradient></defs><path style="transform:translate(0, 0px); opacity:1" fill="url(#sw-gradient-0)" d="M0,188L80,219.3C160,251,320,313,480,344.7C640,376,800,376,960,360.3C1120,345,1280,313,1440,305.5C1600,298,1760,313,1920,329C2080,345,2240,360,2400,305.5C2560,251,2720,125,2880,62.7C3040,0,3200,0,3360,31.3C3520,63,3680,125,3840,133.2C4000,141,4160,94,4320,125.3C4480,157,4640,266,4800,321.2C4960,376,5120,376,5280,352.5C5440,329,5600,282,5760,289.8C5920,298,6080,360,6240,352.5C6400,345,6560,266,6720,258.5C6880,251,7040,313,7200,344.7C7360,376,7520,376,7680,329C7840,282,8000,188,8160,141C8320,94,8480,94,8640,101.8C8800,110,8960,125,9120,117.5C9280,110,9440,78,9600,125.3C9760,172,9920,298,10080,352.5C10240,407,10400,392,10560,383.8C10720,376,10880,376,11040,368.2C11200,360,11360,345,11440,336.8L11520,329L11520,470L11440,470C11360,470,11200,470,11040,470C10880,470,10720,470,10560,470C10400,470,10240,470,10080,470C9920,470,9760,470,9600,470C9440,470,9280,470,9120,470C8960,470,8800,470,8640,470C8480,470,8320,470,8160,470C8000,470,7840,470,7680,470C7520,470,7360,470,7200,470C7040,470,6880,470,6720,470C6560,470,6400,470,6240,470C6080,470,5920,470,5760,470C5600,470,5440,470,5280,470C5120,470,4960,470,4800,470C4640,470,4480,470,4320,470C4160,470,4000,470,3840,470C3680,470,3520,470,3360,470C3200,470,3040,470,2880,470C2720,470,2560,470,2400,470C2240,470,2080,470,1920,470C1760,470,1600,470,1440,470C1280,470,1120,470,960,470C800,470,640,470,480,470C320,470,160,470,80,470L0,470Z"/></svg>